<?xml version="1.0" standalone="no"?>
<svg xmlns="http://www.w3.org/2000/svg" viewBox="0 0 512 512" width="512" height="512">
  <rect x="0" y="0" width="512" height="512" fill="#FFEE91"/>
  <g transform="translate(0,512) scale(0.1,-0.1)" fill="#000000" stroke="none">
<path d="M1733 3945 c-161 -44 -276 -160 -318 -320 -22 -87 -22 -763 0 -850 43 -162 158 -277 322 -320 69 -18 278 -20 355 -4 170 36 307 179 340 355 14 79 5 123 -33 160 -25 24 -39 29 -79 29 -71 0 -107 -37 -121 -125 -12 -78 -38 -123 -92 -158 -39 -26 -45 -27 -187 -27 -142 0 -148 1 -187 27 -22 15 -51 44 -64 65 l-24 38 0 385 0 385 24 38 c13 21 42 50 64 65 39 26 45 27 186 27 136 0 149 -2 184 -24 53 -33 84 -84 96 -161 14 -88 50 -125 121 -125 40 0 54 5 79 29 38 37 47 81 33 160 -33 176 -170 319 -340 355 -74 15 -295 13 -359 -4z"/>
<path d="M2755 3951 c-11 -5 -31 -21 -45 -36 l-25 -27 0 -689 0 -689 33 -32 c28 -28 39 -33 82 -33 43 0 54 5 82 33 l33 32 3 285 3 285 279 0 279 0 3 -285 3 -285 33 -32 c28 -28 39 -33 82 -33 43 0 54 5 82 33 l33 32 0 690 0 690 -33 32 c-28 28 -39 33 -82 33 -43 0 -54 -5 -82 -33 l-33 -32 -3 -285 -3 -285 -279 0 -279 0 -3 285 -3 285 -31 31 c-33 33 -92 46 -129 30z"/>
</g>
</svg>
