<?xml version="1.0" standalone="no"?>
<!DOCTYPE svg PUBLIC "-//W3C//DTD SVG 20010904//EN"
 "http://www.w3.org/TR/2001/REC-SVG-20010904/DTD/svg10.dtd">
<svg version="1.0" xmlns="http://www.w3.org/2000/svg"
 width="512.000000pt" height="512.000000pt" viewBox="0 0 512.000000 512.000000"
 preserveAspectRatio="xMidYMid meet">
<rect x="0" y="0" width="512" height="512" fill="#F5C857"/>
<g transform="translate(0.000000,512.000000) scale(0.100000,-0.100000)"
fill="#ffffff" stroke="none">
<path d="M765 5106 c-103 -33 -179 -97 -221 -189 l-29 -62 0 -2295 0 -2295 29
-62 c34 -75 95 -134 174 -171 l57 -27 1785 0 1785 0 61 28 c76 35 135 94 171
172 l28 60 0 1775 0 1775 -28 60 c-25 53 -92 124 -570 603 -298 298 -564 558
-592 577 -99 68 -37 65 -1390 64 -954 0 -1229 -3 -1260 -13z m2475 -163 c0 -5
1 -215 3 -468 l2 -460 27 -57 c49 -104 141 -175 258 -199 37 -7 197 -10 480
-7 l425 3 3 -1710 c2 -1191 0 -1721 -8 -1747 -14 -48 -55 -97 -97 -114 -27
-12 -325 -14 -1772 -14 -1208 0 -1748 3 -1768 11 -40 15 -73 48 -94 94 -18 39
-19 124 -19 2283 0 2440 -4 2279 53 2341 49 52 -8 50 1295 51 666 0 1212 -3
1212 -7z m1068 -1019 c-4 -3 -184 -2 -400 2 -388 9 -393 9 -424 32 -16 13 -39
37 -50 55 -18 30 -19 57 -22 427 l-3 395 453 -452 c249 -249 449 -455 446
-459z"/>
<path d="M1220 3045 c-34 -37 -33 -90 4 -121 l27 -24 1309 0 1309 0 27 24 c37
31 38 84 4 121 l-23 25 -1317 0 -1317 0 -23 -25z"/>
<path d="M1224 2366 c-37 -31 -38 -84 -4 -121 l23 -25 1317 0 1317 0 23 25
c34 37 33 90 -4 121 l-27 24 -1309 0 -1309 0 -27 -24z"/>
<path d="M1239 1695 c-37 -20 -55 -67 -40 -103 6 -15 21 -33 32 -40 30 -19
2628 -19 2658 -1 53 34 47 115 -10 144 -42 22 -2600 22 -2640 0z"/>
<path d="M1252 1018 c-18 -5 -36 -20 -47 -42 -16 -29 -17 -38 -5 -65 26 -64
-17 -61 939 -61 l869 0 31 26 c40 33 43 89 7 123 l-24 22 -871 2 c-479 1 -884
-1 -899 -5z"/>
</g>
</svg>
