<?xml version="1.0" standalone="no"?>
<!DOCTYPE svg PUBLIC "-//W3C//DTD SVG 20010904//EN"
 "http://www.w3.org/TR/2001/REC-SVG-20010904/DTD/svg10.dtd">
<svg version="1.0" xmlns="http://www.w3.org/2000/svg"
 width="512.000000pt" height="512.000000pt" viewBox="0 0 512.000000 512.000000"
 preserveAspectRatio="xMidYMid meet">
<rect x="0" y="0" width="512" height="512" fill="#F5C857"/>
<g transform="translate(0.000000,512.000000) scale(0.100000,-0.100000)"
fill="#ffffff" stroke="none">
<path d="M3672 4729 c-373 -50 -755 -259 -1118 -611 -116 -113 -122 -117 -138
-99 -31 34 -171 130 -258 176 -386 205 -755 177 -1140 -87 -127 -87 -188 -147
-188 -184 0 -38 36 -74 74 -74 19 0 53 20 109 66 96 77 235 161 329 198 129
51 184 61 323 60 111 -1 143 -5 219 -28 364 -110 701 -431 972 -925 l68 -123
-35 -29 c-80 -67 -186 -94 -276 -70 -23 6 -81 41 -130 77 -143 107 -203 129
-336 122 -99 -5 -180 -39 -268 -111 -78 -63 -129 -88 -196 -94 -84 -8 -131 9
-230 83 -48 36 -104 74 -123 84 -95 48 -251 52 -348 10 -30 -13 -95 -54 -145
-91 -102 -76 -156 -95 -242 -86 -58 6 -112 31 -164 74 l-33 29 37 74 c58 116
156 276 234 379 77 102 87 135 51 171 -23 23 -78 27 -102 8 -41 -34 -181 -241
-261 -386 -250 -452 -386 -1008 -349 -1424 22 -243 71 -419 173 -623 80 -162
172 -287 309 -425 138 -137 263 -229 425 -309 400 -200 830 -232 1262 -95 109
35 319 139 415 205 96 67 238 189 272 233 l25 33 83 -24 c160 -46 250 -58 458
-58 217 0 331 17 511 76 186 61 453 207 547 299 40 40 43 80 7 115 -34 35 -65
31 -122 -13 -112 -88 -176 -126 -212 -123 -64 4 -306 52 -436 86 -202 53 -505
163 -505 184 0 3 11 41 25 84 44 138 68 297 69 464 1 84 2 153 4 153 1 0 20
-11 41 -24 57 -36 269 -141 363 -180 264 -109 581 -186 893 -216 60 -6 111
-13 113 -15 2 -2 -21 -41 -53 -86 -70 -102 -76 -128 -42 -163 58 -58 108 -24
207 139 126 210 193 399 239 673 119 706 -50 1494 -425 1977 -171 221 -387
372 -605 425 -100 24 -275 33 -377 19z m338 -166 c224 -53 438 -223 604 -481
111 -171 288 -602 251 -610 -23 -5 -181 37 -275 73 -455 174 -814 526 -964
943 -20 56 -23 74 -13 78 7 2 49 9 92 13 98 11 218 5 305 -16z m-520 -135
c189 -543 742 -998 1341 -1103 45 -8 83 -16 84 -17 2 -2 10 -46 18 -98 24
-141 37 -299 37 -444 l0 -129 -94 7 c-266 18 -560 103 -829 237 -337 169 -644
447 -837 757 -113 183 -197 391 -244 604 -5 24 1 31 62 71 126 82 374 205 418
207 6 0 26 -41 44 -92z m-635 -354 c158 -563 574 -1053 1132 -1333 271 -136
545 -214 849 -243 l122 -12 -5 -35 c-16 -125 -60 -314 -96 -421 l-42 -125 -40
-3 c-58 -5 -249 16 -405 44 -264 48 -521 131 -755 245 -98 47 -260 139 -310
176 -6 5 -23 69 -37 143 -95 485 -345 985 -664 1329 l-59 64 134 129 c73 71
138 127 144 125 6 -2 20 -39 32 -83z m-1596 -1048 c18 -10 71 -47 117 -82 108
-82 188 -109 307 -102 104 6 160 30 280 119 102 76 156 95 242 86 63 -6 100
-24 180 -87 83 -65 121 -86 189 -105 120 -35 273 -6 373 71 39 30 36 34 87
-121 45 -138 79 -273 100 -395 45 -268 43 -593 -3 -606 -49 -15 -129 -60 -199
-112 -92 -68 -147 -87 -235 -80 -74 6 -102 20 -206 97 -122 90 -165 106 -296
106 -100 0 -116 -3 -172 -29 -35 -16 -98 -55 -140 -87 -88 -66 -143 -89 -218
-89 -74 0 -131 23 -214 86 -122 94 -199 123 -316 124 -110 0 -185 -29 -300
-115 -113 -83 -128 -90 -225 -90 -99 0 -119 8 -212 91 -72 63 -146 109 -200
124 l-36 10 -8 78 c-10 108 2 325 26 467 27 162 52 264 107 428 45 135 46 138
67 123 104 -74 193 -101 307 -93 97 6 156 32 271 117 50 38 105 73 122 79 45
15 165 8 205 -13z m-967 -1427 c46 -39 112 -85 148 -103 60 -29 72 -31 170
-31 129 1 181 19 290 101 99 75 138 94 203 101 91 9 145 -10 258 -93 119 -87
191 -114 304 -114 113 0 185 27 304 114 113 83 167 102 258 93 66 -7 106 -27
213 -106 109 -81 187 -106 310 -99 106 6 171 33 278 115 40 31 75 54 77 51 8
-7 -40 -139 -84 -234 -119 -253 -350 -505 -594 -648 -342 -200 -722 -259
-1110 -171 -378 85 -718 328 -939 671 -80 125 -203 424 -174 424 3 0 42 -32
88 -71z m3028 -329 c134 -55 367 -126 518 -156 50 -10 92 -21 92 -25 0 -9
-131 -45 -230 -64 -121 -23 -316 -30 -436 -16 -95 11 -249 43 -259 53 -3 3 15
36 40 73 24 38 59 97 77 132 39 75 24 75 198 3z"/>
</g>
</svg>
