<?xml version="1.0" standalone="no"?>
<svg xmlns="http://www.w3.org/2000/svg" viewBox="0 0 512 512" width="512" height="512">
  <rect x="0" y="0" width="512" height="512" fill="#FFEE91"/>
  <g transform="translate(0,512) scale(0.1,-0.1)" fill="#000000" stroke="none">
<path d="M1475 3951 c-11 -5 -31 -21 -45 -36 l-25 -27 0 -689 0 -689 33 -32 32 -33 450 0 450 0 32 33 c28 28 33 39 33 82 0 43 -5 54 -33 82 l-32 33 -365 3 -365 3 0 199 0 199 365 3 365 3 32 33 c28 28 33 39 33 82 0 43 -5 54 -33 82 l-32 33 -365 3 -365 3 0 199 0 199 365 3 365 3 32 33 c28 28 33 39 33 82 0 43 -5 54 -33 82 l-32 33 -438 2 c-240 1 -446 -2 -457 -6z"/>
<path d="M2755 3951 c-11 -5 -31 -21 -45 -36 l-25 -27 0 -689 0 -689 33 -32 c28 -28 39 -33 82 -33 43 0 54 5 82 33 l33 32 5 452 5 452 288 -460 c158 -254 299 -472 313 -485 20 -19 37 -24 75 -24 42 0 53 5 81 33 l33 32 0 690 0 690 -33 32 c-28 28 -39 33 -82 33 -43 0 -54 -5 -82 -33 l-33 -32 -5 -452 -5 -452 -288 460 c-158 254 -298 471 -311 483 -26 25 -89 36 -121 22z"/>
</g>
</svg>
