<?xml version="1.0" standalone="no"?>
<!DOCTYPE svg PUBLIC "-//W3C//DTD SVG 20010904//EN"
 "http://www.w3.org/TR/2001/REC-SVG-20010904/DTD/svg10.dtd">
<svg version="1.0" xmlns="http://www.w3.org/2000/svg"
 width="512.000000pt" height="512.000000pt" viewBox="0 0 512.000000 512.000000"
 preserveAspectRatio="xMidYMid meet">
<rect x="0" y="0" width="512" height="512" fill="#F5C857"/>
<g transform="translate(0.000000,512.000000) scale(0.100000,-0.100000)"
fill="#ffffff" stroke="none">
<path d="M2286 4543 c-368 -49 -726 -207 -1011 -445 -392 -327 -640 -787 -705
-1308 -13 -109 -13 -351 0 -460 46 -367 188 -718 408 -1004 115 -149 313 -332
482 -443 625 -413 1463 -435 2110 -56 915 537 1253 1690 775 2643 -262 522
-751 905 -1325 1039 -215 51 -511 64 -734 34z m514 -217 c217 -29 377 -78 575
-176 185 -92 303 -178 455 -330 153 -152 239 -271 329 -455 141 -285 201 -561
188 -870 -20 -477 -213 -909 -548 -1230 -269 -257 -592 -415 -974 -476 -118
-19 -418 -17 -540 4 -402 68 -733 241 -1007 525 -393 408 -566 977 -469 1543
133 771 741 1357 1521 1464 128 17 341 18 470 1z"/>
<path d="M2495 3451 c-74 -18 -115 -67 -115 -139 0 -49 17 -86 55 -122 21 -20
39 -25 93 -28 57 -3 72 0 102 20 116 78 74 254 -65 271 -22 2 -53 1 -70 -2z"/>
<path d="M2464 2856 c-17 -8 -40 -26 -52 -41 -22 -28 -22 -29 -22 -579 0 -535
1 -552 20 -584 56 -92 222 -75 250 26 6 23 10 231 10 556 0 503 -1 521 -20
562 -33 67 -111 92 -186 60z"/>
</g>
</svg>
